<svg width="19" height="19" viewBox="0 0 19 19" fill="none" xmlns="http://www.w3.org/2000/svg">
  <g clip-path="url(#clip0_155_240)">
    <path
      d="M12.7139 0.5C12.7558 0.5 12.7977 0.5 12.842 0.5C12.9447 1.7694 12.4602 2.71789 11.8713 3.40476C11.2935 4.08688 10.5023 4.74845 9.22267 4.64807C9.13731 3.39685 9.62262 2.51871 10.2107 1.83342C10.7561 1.19477 11.7559 0.626466 12.7139 0.5Z"
      fill="currentColor" />
    <path
      d="M16.5877 13.7125C16.5877 13.7251 16.5877 13.7362 16.5877 13.748C16.2281 14.8372 15.7151 15.7707 15.0891 16.637C14.5176 17.4234 13.8173 18.4818 12.5669 18.4818C11.4864 18.4818 10.7687 17.787 9.66135 17.7681C8.48996 17.7491 7.84578 18.349 6.77477 18.5C6.65226 18.5 6.52975 18.5 6.4096 18.5C5.62315 18.3862 4.98845 17.7633 4.52606 17.2021C3.1626 15.5438 2.10899 13.4018 1.91296 10.6607C1.91296 10.392 1.91296 10.124 1.91296 9.85527C1.99596 7.89347 2.94919 6.29843 4.21622 5.52541C4.8849 5.11439 5.80415 4.76424 6.82773 4.92074C7.26641 4.98872 7.71457 5.1389 8.1074 5.28749C8.47969 5.43056 8.94524 5.68428 9.38629 5.67084C9.68506 5.66215 9.98226 5.50644 10.2834 5.39657C11.1655 5.07804 12.0302 4.71287 13.17 4.88438C14.5398 5.09147 15.512 5.70009 16.1127 6.63909C14.9539 7.37655 14.0378 8.48786 14.1943 10.3856C14.3335 12.1095 15.3357 13.1181 16.5877 13.7125Z"
      fill="currentColor" />
  </g>
  <defs>
    <clipPath id="clip0_155_240">
      <rect width="18" height="18" fill="white" transform="translate(0.25 0.5)" />
    </clipPath>
  </defs>
</svg>