<svg xmlns="http://www.w3.org/2000/svg" width="19" height="19" fill="none" viewBox="0 0 19 19"><g clip-path="url(#clip0_155_114)"><path fill="url(#paint0_linear_155_114)" d="M8.265 18.41C3.99 17.645 0.75 13.955 0.75 9.5C0.75 4.55 4.8 0.5 9.75 0.5C14.7 0.5 18.75 4.55 18.75 9.5C18.75 13.955 15.51 17.645 11.235 18.41L10.74 18.005H8.76L8.265 18.41Z"/><path fill="#fff" d="M13.2601 12.02L13.6651 9.50001H11.2801V7.74501C11.2801 7.02501 11.5501 6.48501 12.6301 6.48501H13.8001V4.19001C13.1701 4.10001 12.4501 4.01001 11.8201 4.01001C9.75006 4.01001 8.31006 5.27001 8.31006 7.52001V9.50001H6.06006V12.02H8.31006V18.365C8.80506 18.455 9.30006 18.5 9.79506 18.5C10.2901 18.5 10.7851 18.455 11.2801 18.365V12.02H13.2601Z"/></g><defs><linearGradient id="paint0_linear_155_114" x1="9.75" x2="9.75" y1="17.874" y2=".497" gradientUnits="userSpaceOnUse"><stop stop-color="#0062E0"/><stop offset="1" stop-color="#19AFFF"/></linearGradient><clipPath id="clip0_155_114"><rect width="18" height="18" fill="#fff" transform="translate(0.75 0.5)"/></clipPath></defs></svg>