<svg xmlns="http://www.w3.org/2000/svg" width="19" height="19" fill="none" viewBox="0 0 19 19"><path fill="#4285F4" d="M17.1258 9.67493C17.1258 9.02743 17.0722 8.55493 16.9561 8.06494H9.4115V10.9874H13.84C13.7508 11.7137 13.2686 12.8074 12.1972 13.5424L12.1822 13.6402L14.5676 15.4513L14.7329 15.4674C16.2507 14.0937 17.1258 12.0724 17.1258 9.67493Z"/><path fill="#34A853" d="M9.41098 17.375C11.5806 17.375 13.402 16.675 14.7324 15.4675L12.1967 13.5424C11.5181 14.0062 10.6074 14.3299 9.41098 14.3299C7.28601 14.3299 5.48246 12.9562 4.83954 11.0574L4.7453 11.0653L2.26486 12.9465L2.23242 13.0349C3.55383 15.6074 6.26811 17.375 9.41098 17.375Z"/><path fill="#FBBC05" d="M4.84004 11.0575C4.6704 10.5675 4.57223 10.0424 4.57223 9.49997C4.57223 8.95744 4.6704 8.43246 4.83112 7.94247L4.82662 7.83811L2.31509 5.92664L2.23291 5.96494C1.6883 7.03245 1.37579 8.23123 1.37579 9.49997C1.37579 10.7687 1.6883 11.9674 2.23291 13.0349L4.84004 11.0575Z"/><path fill="#EB4335" d="M9.41103 4.66998C10.9199 4.66998 11.9378 5.30873 12.5182 5.84251L14.786 3.6725C13.3932 2.40375 11.5806 1.625 9.41103 1.625C6.26814 1.625 3.55384 3.39249 2.23242 5.96497L4.83063 7.94249C5.48248 6.04375 7.28604 4.66998 9.41103 4.66998Z"/></svg>